#!OML:ASF H:\Male1\Project 1\Capture day 1\Session 1\Male1.ASF
:FULLY-SPECIFIED
:DEGREES
662
root 22.5754 15.1826 0.526043 152.416 -84.9134 -154.404
lowerback 12.5294 0.293951 -1.78356
upperback 8.69047 -0.278621 -0.900935
thorax 2.08846 -0.403542 0.0860219
lowerneck -8.9619 5.58327 9.92286
upperneck 2.41984 6.84955 -9.90533
head 2.86643 3.17201 -4.23778
rclavicle 7.95139e-016 1.51076e-014
rhumerus -4.55576 34.4834 -92.8715
rradius 130.096
rwrist -2.89353
rhand -17.7273 28.331
rfingers 7.12502
rthumb 8.53356 -1.47658
lclavicle 7.95139e-016 1.51076e-014
lhumerus 12.6384 -19.142 79.1271
lradius 139.738
lwrist 1.48967
lhand -2.62595 -18.937
lfingers 7.12502
lthumb 23.0729 9.70166
rfemur -13.4455 2.04579 20.6413
rtibia 33.6442
rfoot -21.2421 -24.4424
rtoes -29.3618
lfemur -12.8822 -3.92913 -12.285
ltibia 35.3641
lfoot -19.7049 16.3842
ltoes -20.1514
663
root 22.5863 15.1263 0.54766 151.927 -84.7403 -154.066
lowerback 12.5949 0.224738 -1.85936
upperback 9.17558 -0.416375 -0.77132
thorax 2.57337 -0.504289 0.272155
lowerneck -8.73371 5.61096 10.058
upperneck 1.71728 6.87866 -10.5922
head 2.65656 3.17099 -4.48118
rclavicle 7.95139e-016 1.59028e-015
rhumerus -4.88813 33.9989 -93.2074
rradius 130.304
rwrist -2.81734
rhand -17.4699 28.4461
rfingers 7.12502
rthumb 8.78195 -1.35118
lclavicle 7.95139e-016 1.59028e-015
lhumerus 12.5599 -19.5638 79.5953
lradius 139.945
lwrist 1.70857
lhand -2.45017 -18.4885
lfingers 7.12502
lthumb 23.2416 10.129
rfemur -14.1829 1.21044 20.6141
rtibia 35.0892
rfoot -21.2704 -23.7324
rtoes -30.5668
lfemur -13.753 -3.06437 -12.136
ltibia 37.1042
lfoot -20.2676 15.5856
ltoes -19.8841
664
root 22.5951 15.066 0.570102 151.046 -84.5462 -153.207
lowerback 13.0334 0.110083 -1.8214
upperback 9.24932 -0.590739 -0.668283
thorax 2.42153 -0.599143 0.379134
lowerneck -8.55873 5.8687 10.7062
upperneck 1.47761 7.20726 -11.657
head 2.6614 3.31056 -4.89877
rclavicle -1.98785e-015 3.97569e-015
rhumerus -5.9171 33.5944 -94.0348
rradius 130.541
rwrist -2.49811
rhand -17.3902 28.1069
rfingers 7.12502
rthumb 8.85886 -1.68713
lclavicle -1.98785e-015 3.97569e-015
lhumerus 11.8229 -20.001 80.2661
lradius 140.061
lwrist 2.00079
lhand -2.24856 -18.0659
lfingers 7.12502
lthumb 23.435 10.527
rfemur -15.0823 0.307559 20.633
rtibia 36.5554
rfoot -21.3554 -23.0306
rtoes -31.7184
lfemur -14.798 -2.36238 -11.9642
ltibia 38.9641
lfoot -20.9376 15.1013
ltoes -19.6936
665
root 22.6048 15.0031 0.592658 148.936 -84.2952 -151.139
lowerback 13.6506 -0.036699 -1.84215
upperback 9.21184 -0.811687 -0.404416
thorax 2.06195 -0.719613 0.698131
lowerneck -8.06647 6.04468 11.02
upperneck 1.00591 7.46098 -12.5494
head 2.52373 3.42913 -5.2251
rclavicle 2.38542e-015 9.54166e-015
rhumerus -7.13013 33.4481 -94.8164
rradius 130.891
rwrist -2.31206
rhand -17.6363 27.6609
rfingers 7.12502
rthumb 8.6213 -2.14307
lclavicle 2.38542e-015 9.54166e-015
lhumerus 10.7061 -20.2713 81.2401
lradius 140.155
lwrist 2.10705
lhand -1.86264 -18.0356
lfingers 7.12502
lthumb 23.8051 10.5096
rfemur -15.9441 -0.660504 20.8045
rtibia 38.0269
rfoot -21.5446 -22.3225
rtoes -32.6506
lfemur -15.779 -1.72491 -11.688
ltibia 40.8934
lfoot -21.6759 14.9314
ltoes -20.6197
666
root 22.6127 14.9358 0.615546 144.82 -84.033 -147.141
lowerback 14.0562 -0.181522 -1.50733
upperback 9.46048 -1.00455 -0.150617
thorax 2.1165 -0.824193 0.799413
lowerneck -7.68682 5.94654 11.2528
upperneck 0.435882 7.32372 -13.4373
head 2.32822 3.3526 -5.56462
rclavicle -7.95139e-016 2.46493e-014
rhumerus -7.8227 33.0548 -95.3366
rradius 131.281
rwrist -2.34634
rhand -17.7439 27.453
rfingers 7.12502
rthumb 8.51753 -2.35517
lclavicle -7.95139e-016 2.46493e-014
lhumerus 9.89829 -20.7252 82.1413
lradius 139.944
lwrist 1.66077
lhand -2.51194 -18.6682
lfingers 7.12502
lthumb 23.1823 9.9567
rfemur -16.662 -1.69757 21.17
rtibia 39.4913
rfoot -21.8649 -21.6285
rtoes -33.2525
lfemur -16.7161 -1.28372 -11.1993
ltibia 42.8242
lfoot -22.2406 14.7299
ltoes -21.7475
667
root 22.6174 14.8653 0.638371 140.719 -83.8752 -143.169
lowerback 14.3146 -0.317824 -1.28382
upperback 9.80474 -1.20163 0.165214
thorax 2.35683 -0.942794 1.02548
lowerneck -7.3352 6.04572 11.6481
upperneck -0.253149 7.42527 -14.589
head 2.15255 3.39182 -5.99914
rclavicle 6.75868e-015 2.78299e-014
rhumerus -8.29996 32.5613 -95.6391
rradius 131.682
rwrist -2.34658
rhand -17.3851 27.2812
rfingers 7.12502
rthumb 8.86373 -2.51261
lclavicle 6.75868e-015 2.78299e-014
lhumerus 9.16611 -21.0712 83.1601
lradius 139.983
lwrist 2.04634
lhand -2.46272 -18.5904
lfingers 7.12502
lthumb 23.2295 10.0286
rfemur -17.3389 -2.74233 21.4605
rtibia 40.9532
rfoot -22.3462 -20.9121
rtoes -33.4215
lfemur -17.6411 -1.12302 -10.7769
ltibia 44.6841
lfoot -22.5762 14.5351
ltoes -22.5925
668
root 22.6202 14.7938 0.659982 137.791 -83.8208 -140.382
lowerback 14.9439 -0.451845 -1.05485
upperback 9.91452 -1.38401 0.318433
thorax 2.14743 -1.03818 1.09069
lowerneck -7.17871 6.12411 12.049
upperneck -0.480747 7.51569 -15.5976
head 2.13864 3.4202 -6.38401
rclavicle -4.57205e-015 8.74653e-015
rhumerus -9.03147 31.8357 -96.2833
rradius 132.057
rwrist -2.2006
rhand -16.6122 27.0095
rfingers 7.12502
rthumb 9.60952 -2.75136
lclavicle -4.57205e-015 8.74653e-015
lhumerus 7.98277 -21.6656 84.2231
lradius 139.824
lwrist 1.64929
lhand -3.56055 -18.4993
lfingers 7.12502
lthumb 22.1759 10.2487
rfemur -17.9879 -3.68813 21.5816
rtibia 42.3921
rfoot -22.7579 -20.3016
rtoes -33.8104
lfemur -18.4889 -1.11933 -10.5445
ltibia 46.4393
lfoot -23.1291 14.3853
ltoes -22.935
669
root 22.6239 14.7219 0.681758 134.872 -83.7935 -137.608
lowerback 15.3569 -0.54644 -0.9914
upperback 10.1727 -1.54119 0.588843
thorax 2.22019 -1.14045 1.36278
lowerneck -7.11805 6.31826 12.3999
upperneck -0.822075 7.74721 -16.8987
head 2.14515 3.50862 -6.84524
rclavicle 5.76476e-015 -2.06736e-014
rhumerus -9.33681 31.1305 -96.5406
rradius 132.402
rwrist -2.19861
rhand -15.6119 26.6627
rfingers 7.12502
rthumb 10.5745 -3.05124
lclavicle 5.76476e-015 -2.06736e-014
lhumerus 6.97502 -21.9697 85.5901
lradius 139.92
lwrist 2.0395
lhand -3.18908 -19.3866
lfingers 7.12502
lthumb 22.5325 9.31859
rfemur -18.5888 -4.51317 21.694
rtibia 43.7623
rfoot -23.0615 -19.9228
rtoes -34.5016
lfemur -19.305 -1.22248 -10.3391
ltibia 48.083
lfoot -23.9395 14.2448
ltoes -22.9009
670
root 22.6293 14.6531 0.702087 130.616 -83.6915 -133.399
lowerback 15.6687 -0.609515 -0.761431
upperback 10.429 -1.6346 0.90257
thorax 2.34164 -1.20401 1.57723
lowerneck -6.93584 6.23708 12.327
upperneck -1.18556 7.62519 -17.755
head 2.03544 3.43878 -7.12491
rclavicle 0 -2.10712e-014
rhumerus -9.61182 30.3041 -96.7483
rradius 132.775
rwrist -2.21329
rhand -14.733 26.4404
rfingers 7.12502
rthumb 11.4223 -3.22845
lclavicle 0 -2.10712e-014
lhumerus 5.99311 -22.3267 87.0272
lradius 139.779
lwrist 2.12331
lhand -3.23826 -21.918
lfingers 7.12502
lthumb 22.4853 6.79298
rfemur -19.2082 -5.1785 22.0008
rtibia 44.9867
rfoot -23.453 -19.735
rtoes -34.823
lfemur -20.2093 -1.43308 -9.95694
ltibia 49.5909
lfoot -24.5833 14.1423
ltoes -22.863
671
root 22.6329 14.5924 0.720186 124.68 -83.6068 -127.41
lowerback 16.0031 -0.672558 -0.308389
upperback 10.5716 -1.68559 1.15843
thorax 2.32052 -1.22593 1.60398
lowerneck -6.85437 6.23702 12.652
upperneck -1.43378 7.58919 -18.7192
head 2.01052 3.40564 -7.49982
rclavicle 1.19271e-015 -1.82882e-014
rhumerus -10.0034 29.1666 -97.0727
rradius 133.002
rwrist -2.33968
rhand -13.8838 26.5187
rfingers 7.12502
rthumb 12.2411 -3.10305
lclavicle 1.19271e-015 -1.82882e-014
lhumerus 4.8897 -22.8577 88.4026
lradius 139.538
lwrist 2.12803
lhand -3.40409 -22.5476
lfingers 7.12502
lthumb 22.3261 6.18247
rfemur -19.7838 -5.80686 22.4217
rtibia 45.9857
rfoot -23.9581 -19.6772
rtoes -34.6897
lfemur -21.1669 -1.77452 -9.47577
ltibia 50.9003
lfoot -24.9779 13.993
ltoes -22.8043
672
root 22.6319 14.5463 0.73564 118.157 -83.6422 -120.88
lowerback 16.2706 -0.686874 0.0167722
upperback 10.7271 -1.68499 1.3921
thorax 2.3503 -1.22714 1.67088
lowerneck -6.75073 6.19022 12.8598
upperneck -1.63049 7.50061 -19.4268
head 1.96983 3.35397 -7.77795
rclavicle 1.80894e-014 -2.14687e-014
rhumerus -10.2696 27.5857 -97.2306
rradius 132.945
rwrist -2.70717
rhand -12.5231 26.8239
rfingers 7.12502
rthumb 13.5528 -2.71499
lclavicle 1.80894e-014 -2.14687e-014
lhumerus 3.89791 -23.2566 89.762
lradius 139.19
lwrist 2.54347
lhand -2.96547 -21.4253
lfingers 7.12502
lthumb 22.7471 7.25375
rfemur -20.1132 -6.42697 22.7059
rtibia 46.71
rfoot -24.4156 -19.7102
rtoes -34.4276
lfemur -21.9235 -2.235 -9.14194
ltibia 51.8979
lfoot -25.2727 13.8116
ltoes -22.875
673
root 22.6251 14.5193 0.748633 110.938 -83.8014 -113.764
lowerback 16.6728 -0.635276 0.216121
upperback 10.8417 -1.60644 1.5754
thorax 2.26577 -1.19171 1.74977
lowerneck -7.05417 6.23403 12.9177
upperneck -1.13928 7.60289 -19.9043
head 2.20737 3.36678 -7.92663
rclavicle -1.21259e-014 9.93923e-015
rhumerus -10.538 25.6071 -97.2648
rradius 132.687
rwrist -3.08783
rhand -11.0958 27.4329
rfingers 7.12502
rthumb 14.9282 -2.00912
lclavicle -1.21259e-014 9.93923e-015
lhumerus 2.8405 -23.8717 91.1771
lradius 138.696
lwrist 3.20358
lhand -2.31203 -20.4072
lfingers 7.12502
lthumb 23.3741 8.19348
rfemur -20.0902 -7.06299 22.7786
rtibia 47.1358
rfoot -24.7443 -19.7687
rtoes -34.2262
lfemur -22.3527 -2.85905 -9.02582
ltibia 52.5246
lfoot -25.2979 13.7364
ltoes -23.3278
674
root 22.6139 14.5124 0.760092 101.922 -84.1532 -104.901
lowerback 17.0673 -0.549399 0.323194
upperback 10.9523 -1.48766 1.60686
thorax 2.17758 -1.13282 1.71434
lowerneck -7.26542 6.02474 12.4372
upperneck -0.520903 7.41149 -19.6028
head 2.35252 3.25335 -7.74999
rclavicle -2.0276e-014 3.57812e-015
rhumerus -10.6513 23.4083 -97.1871
rradius 132.164
rwrist -3.32684
rhand -10.0462 26.2847
rfingers 7.12502
rthumb 15.9392 -3.07944
lclavicle -2.0276e-014 3.57812e-015
lhumerus 1.59646 -24.8845 92.5688
lradius 137.957
lwrist 3.57066
lhand -1.54125 -19.704
lfingers 7.12502
lthumb 24.1133 8.80065
rfemur -19.7727 -7.82576 22.55
rtibia 47.2406
rfoot -25.0271 -19.803
rtoes -33.8285
lfemur -22.5339 -3.72874 -9.23117
ltibia 52.7727
lfoot -25.0398 13.7445
ltoes -23.7456
675
root 22.6081 14.5208 0.764891 90.851 -84.3359 -93.8332
lowerback 16.7382 -0.333552 0.0567556
upperback 11.4523 -1.29187 1.89176
thorax 2.90074 -1.081 2.12047
lowerneck -7.53049 5.99847 12.2272
upperneck -0.580924 7.36297 -19.8113
head 2.37589 3.2101 -7.78044
rclavicle -3.18055e-015 -1.07344e-014
rhumerus -9.7407 21.1492 -96.1462
rradius 131.155
rwrist -3.39679
rhand -9.52104 26.1325
rfingers 7.12502
rthumb 16.4448 -3.19045
lclavicle -3.18055e-015 -1.07344e-014
lhumerus 0.836704 -26.5286 93.9483
lradius 137.041
lwrist 1.45174
lhand -3.13792 -20.5766
lfingers 7.12502
lthumb 22.5816 8.1227
rfemur -19.4708 -8.45648 22.4188
rtibia 47.0505
rfoot -25.229 -20.0601
rtoes -33.2695
lfemur -22.7644 -4.6393 -9.37157
ltibia 52.6504
lfoot -24.7042 13.5926
ltoes -23.672
